<svg xmlns="http://www.w3.org/2000/svg" viewBox="0 0 32 32.02"><title>Fichier 17</title><g id="Calque_2" data-name="Calque 2"><g id="Calque_1-2" data-name="Calque 1"><path d="M8,4V1A1,1,0,0,0,6,1V4A1,1,0,0,0,8,4Z"/><path d="M17,4V1a1,1,0,0,0-2,0V4a1,1,0,0,0,2,0Z"/><path d="M26,4V1a1,1,0,0,0-2,0V4a1,1,0,0,0,2,0Z"/><path d="M30,3H28v.87a3.09,3.09,0,0,1-2.4,3.07A3,3,0,0,1,22,4V3H19v.87a3.09,3.09,0,0,1-2.4,3.07A3,3,0,0,1,13,4V3H10v.87A3.09,3.09,0,0,1,7.6,6.94,3,3,0,0,1,4,4V3H2A2,2,0,0,0,0,5V30a2,2,0,0,0,2,2l28,0a2,2,0,0,0,2-2L32,5A2,2,0,0,0,30,3Zm0,26a1,1,0,0,1-1,1H3a1,1,0,0,1-1-1V11a1,1,0,0,1,1-1H29a1,1,0,0,1,1,1Z"/><path d="M5.22,15.08h3.5A.25.25,0,0,0,9,14.83v-1.5a.25.25,0,0,0-.25-.25H5.22a.25.25,0,0,0-.25.25v1.5A.25.25,0,0,0,5.22,15.08Z"/><path d="M23.26,15h3.5a.25.25,0,0,0,.25-.25v-1.5a.25.25,0,0,0-.25-.25h-3.5a.25.25,0,0,0-.25.25v1.5A.25.25,0,0,0,23.26,15Z"/><path d="M17.22,15.08h3.5a.25.25,0,0,0,.25-.25v-1.5a.25.25,0,0,0-.25-.25h-3.5a.25.25,0,0,0-.25.25v1.5A.25.25,0,0,0,17.22,15.08Z"/><path d="M11.22,15h3.5a.25.25,0,0,0,.25-.25v-1.5a.25.25,0,0,0-.25-.25h-3.5a.25.25,0,0,0-.25.25v1.5A.25.25,0,0,0,11.22,15Z"/><path d="M8.68,25.08H5.18a.25.25,0,0,0-.25.25v1.5a.25.25,0,0,0,.25.25h3.5a.25.25,0,0,0,.25-.25v-1.5A.25.25,0,0,0,8.68,25.08Z"/><path d="M26.72,25h-3.5a.25.25,0,0,0-.25.25v1.5a.25.25,0,0,0,.25.25h3.5a.25.25,0,0,0,.25-.25v-1.5A.25.25,0,0,0,26.72,25Z"/><path d="M20.68,25.08h-3.5a.25.25,0,0,0-.25.25v1.5a.25.25,0,0,0,.25.25h3.5a.25.25,0,0,0,.25-.25v-1.5A.25.25,0,0,0,20.68,25.08Z"/><path d="M14.68,25h-3.5a.25.25,0,0,0-.25.25v1.5a.25.25,0,0,0,.25.25h3.5a.25.25,0,0,0,.25-.25v-1.5A.25.25,0,0,0,14.68,25Z"/><path d="M8.76,19.08H5.26a.25.25,0,0,0-.25.25v1.5a.25.25,0,0,0,.25.25h3.5A.25.25,0,0,0,9,20.83v-1.5A.25.25,0,0,0,8.76,19.08Z"/><path d="M26.8,19H23.3a.25.25,0,0,0-.25.25v1.5a.25.25,0,0,0,.25.25h3.5a.25.25,0,0,0,.25-.25v-1.5A.25.25,0,0,0,26.8,19Z"/><path d="M20.76,19.08h-3.5a.25.25,0,0,0-.25.25v1.5a.25.25,0,0,0,.25.25h3.5a.25.25,0,0,0,.25-.25v-1.5A.25.25,0,0,0,20.76,19.08Z"/><path d="M14.76,19h-3.5a.25.25,0,0,0-.25.25v1.5a.25.25,0,0,0,.25.25h3.5a.25.25,0,0,0,.25-.25v-1.5A.25.25,0,0,0,14.76,19Z"/></g></g></svg>