<svg xmlns="http://www.w3.org/2000/svg" viewBox="0 0 81.62 56.73"><title>Fichier 1</title><g id="Calque_2" data-name="Calque 2"><g id="Calque_1-2" data-name="Calque 1"><path d="M81,26.56a1.3,1.3,0,0,0-1.32,0l-12.52,7.8H63.29v-3a6,6,0,0,0-6-6h-.43A14,14,0,1,0,36.09,8.12,14,14,0,1,0,15.34,25.34H2.6A2.6,2.6,0,0,0,.17,28.86L2,33.56a4,4,0,0,0,3.76,2.6H9.46V50.67a6,6,0,0,0,6,6H57.28a6,6,0,0,0,6-6V48.73h3.82l12.52,7.8a1.23,1.23,0,0,0,.69.2,1.28,1.28,0,0,0,.63-.16,1.32,1.32,0,0,0,.67-1.14V27.69A1.3,1.3,0,0,0,81,26.56ZM65.87,37v2.72H63.29V37Zm-8.59-9a3.41,3.41,0,0,1,3.41,3.41v8.36h-12V37.06a3.22,3.22,0,0,0-3.22-3.22H27.25A3.22,3.22,0,0,0,24,37.06v2.65h-12V31.35a3.41,3.41,0,0,1,3.41-3.41H57.28ZM46.12,45a.62.62,0,0,1-.62.62H27.25a.62.62,0,0,1-.62-.62v-7.9a.62.62,0,0,1,.62-.62H45.5a.62.62,0,0,1,.62.62ZM31.51,25.34a14,14,0,0,0,4.58-5.52,14.15,14.15,0,0,0,4.59,5.52ZM48.76,2.6A11.37,11.37,0,1,1,37.39,14,11.38,11.38,0,0,1,48.76,2.6ZM12.06,14A11.37,11.37,0,1,1,23.42,25.34,11.38,11.38,0,0,1,12.06,14ZM5.72,33.56a1.43,1.43,0,0,1-1.33-.92L2.6,27.94h7.93a5.9,5.9,0,0,0-1.07,3.41v2.21Zm55,17.11a3.41,3.41,0,0,1-3.41,3.41H15.47a3.41,3.41,0,0,1-3.41-3.41V42.31H24V45a3.22,3.22,0,0,0,3.22,3.22H45.5A3.22,3.22,0,0,0,48.72,45V42.31h12v8.36Zm2.6-4.54V42.31h2.58v3.82Zm15.73,7L68.78,46.71V36.42L79,30Z"/></g></g></svg>