<svg xmlns="http://www.w3.org/2000/svg" viewBox="0 0 68.6 90.1"><title>Fichier 1</title><g id="Calque_2" data-name="Calque 2"><g id="Calque_1-2" data-name="Calque 1"><path d="M66.6,20,47.3.8a3.18,3.18,0,0,0-2-.8H5.3A5.34,5.34,0,0,0,0,5.3V84.8a5.34,5.34,0,0,0,5.3,5.3h58a5.34,5.34,0,0,0,5.3-5.3V25A7.2,7.2,0,0,0,66.6,20Zm-3.2,2.5h-16a1.32,1.32,0,0,1-1.3-1.3V5.2Zm-.1,64H5.3a1.79,1.79,0,0,1-1.8-1.8V5.3A1.79,1.79,0,0,1,5.3,3.5H42.7V21.3A4.69,4.69,0,0,0,47.4,26H65.1V84.8A1.77,1.77,0,0,1,63.3,86.5ZM66.6,20,47.3.8a3.18,3.18,0,0,0-2-.8H5.3A5.34,5.34,0,0,0,0,5.3V84.8a5.34,5.34,0,0,0,5.3,5.3h58a5.34,5.34,0,0,0,5.3-5.3V25A7.2,7.2,0,0,0,66.6,20Zm-3.2,2.5h-16a1.32,1.32,0,0,1-1.3-1.3V5.2Zm-.1,64H5.3a1.79,1.79,0,0,1-1.8-1.8V5.3A1.79,1.79,0,0,1,5.3,3.5H42.7V21.3A4.69,4.69,0,0,0,47.4,26H65.1V84.8A1.77,1.77,0,0,1,63.3,86.5ZM21.4,48.7V51a.79.79,0,0,1-.8.8h-.5a.37.37,0,0,0-.3.1c-.1,0-.1.1-.2.2s-.1.3-.2.6a3.75,3.75,0,0,0-.1,1.1v2.1a9.15,9.15,0,0,1-.1,1.7,5,5,0,0,1-.4,1.3,1.79,1.79,0,0,1-.5.7,1.61,1.61,0,0,1,.4.7,7.75,7.75,0,0,1,.5,3v3.1a4.12,4.12,0,0,0,.1,1.2,3.93,3.93,0,0,1,.2.6c.1.1.1.2.2.2s.2.1.4.1h.5a.79.79,0,0,1,.8.8v2.3a.79.79,0,0,1-.8.8H20a3.31,3.31,0,0,1-3-1.6,7.87,7.87,0,0,1-.9-4.3V63.4c0-.9-.1-1.3-.3-1.5a.59.59,0,0,0-.5-.2h-.5a.79.79,0,0,1-.8-.8V58.6a.79.79,0,0,1,.8-.8h.5c.2,0,.3,0,.4-.1l.2-.2c0-.1.1-.2.2-.5s.1-.6.1-1V53.8a16.59,16.59,0,0,1,.2-2.4,4.84,4.84,0,0,1,.7-1.8,3,3,0,0,1,1.3-1.2,3.42,3.42,0,0,1,1.8-.4h.6C21.1,47.9,21.4,48.2,21.4,48.7Zm6.8,14.8a2.12,2.12,0,0,1,0,1.8A2.62,2.62,0,0,1,27,66.5a2.92,2.92,0,0,1-.9.2,2.92,2.92,0,0,1-.9-.2A2.62,2.62,0,0,1,24,65.3a2.12,2.12,0,0,1,0-1.8,2.62,2.62,0,0,1,1.2-1.2,2.78,2.78,0,0,1,1.8,0,2.62,2.62,0,0,1,1.2,1.2Zm8.1,0a2.13,2.13,0,0,1,0,1.8,2.62,2.62,0,0,1-1.2,1.2,2.92,2.92,0,0,1-.9.2,2.92,2.92,0,0,1-.9-.2,2.62,2.62,0,0,1-1.2-1.2,2.13,2.13,0,0,1,0-1.8,2.62,2.62,0,0,1,1.2-1.2,2.77,2.77,0,0,1,1.8,0,1.79,1.79,0,0,1,.7.5A1.16,1.16,0,0,1,36.3,63.5Zm8.2,0a2.13,2.13,0,0,1,0,1.8,2.62,2.62,0,0,1-1.2,1.2,2.12,2.12,0,0,1-1.8,0,2.62,2.62,0,0,1-1.2-1.2,2.13,2.13,0,0,1,0-1.8,2.62,2.62,0,0,1,1.2-1.2,2.77,2.77,0,0,1,1.8,0,2.62,2.62,0,0,1,1.2,1.2Zm10-5.2v2.3a.79.79,0,0,1-.8.8h-.5c-.2,0-.3,0-.4.1s-.1.1-.2.2-.1.2-.2.5-.1.6-.1,1v3.2a14,14,0,0,1-.2,2.3,4.84,4.84,0,0,1-.7,1.8,3,3,0,0,1-1.3,1.2,3.42,3.42,0,0,1-1.8.4h-.6a.79.79,0,0,1-.8-.8V69a.79.79,0,0,1,.8-.8h.5a.6.6,0,0,0,.4-.1c.1,0,.1-.1.2-.2a.85.85,0,0,0,.2-.6,3.75,3.75,0,0,0,.1-1.1V63a9.15,9.15,0,0,1,.1-1.7c.1-.5.2-.9.3-1.3a1.79,1.79,0,0,1,.5-.7,1.61,1.61,0,0,1-.4-.7,7.75,7.75,0,0,1-.5-3v-2a4.12,4.12,0,0,0-.1-1.2,3.93,3.93,0,0,1-.2-.6c-.1-.1-.1-.2-.2-.2s-.2-.1-.4-.1h-.5a.79.79,0,0,1-.8-.8V48.4a.79.79,0,0,1,.8-.8h.6a3.21,3.21,0,0,1,3,1.6,7.87,7.87,0,0,1,.9,4.3v2.1c0,.9.1,1.3.3,1.5a.59.59,0,0,0,.5.2h.5C54.1,57.6,54.5,57.9,54.5,58.3Z"/></g></g></svg>