<?xml version="1.0" standalone="no"?>
<!DOCTYPE svg PUBLIC "-//W3C//DTD SVG 20010904//EN"
 "http://www.w3.org/TR/2001/REC-SVG-20010904/DTD/svg10.dtd">
<svg version="1.0" xmlns="http://www.w3.org/2000/svg"
 width="1064.000000pt" height="1064.000000pt" viewBox="0 0 1064.000000 1064.000000"
 preserveAspectRatio="xMidYMid meet">
<metadata>
Created by potrace 1.11, written by Peter Selinger 2001-2013
</metadata>
<g transform="translate(0.000000,1064.000000) scale(0.100000,-0.100000)"
fill="#000000" stroke="none">
<path d="M3290 9988 c-1 -49 -1 -512 0 -593 l0 -70 432 2 c238 1 435 2 438 2
3 1 6 156 6 346 l1 345 -438 0 -439 0 0 -32z"/>
<path d="M1397 9024 c-1 -1 -37 -5 -81 -8 -86 -7 -255 -38 -298 -55 -16 -6
-28 -8 -28 -5 0 4 -6 2 -12 -3 -7 -6 -26 -13 -42 -17 -52 -13 -200 -87 -286
-144 -142 -94 -314 -281 -380 -412 -7 -14 -16 -27 -20 -30 -6 -4 -84 -186 -86
-200 0 -3 -6 -25 -13 -50 -7 -25 -14 -49 -15 -55 -2 -5 -8 -28 -14 -50 -6 -22
-13 -58 -16 -80 -3 -22 -8 -51 -11 -65 -2 -14 -7 -79 -10 -144 -4 -66 -6 -122
-7 -125 0 -3 0 -8 1 -11 1 -3 3 -39 6 -80 7 -151 31 -287 67 -395 11 -33 22
-68 24 -78 5 -27 99 -217 128 -260 14 -21 26 -40 26 -43 0 -3 6 -11 13 -18 6
-7 26 -30 42 -52 86 -109 234 -232 368 -304 68 -36 209 -97 246 -105 9 -2 30
-8 48 -14 17 -5 34 -7 37 -3 3 3 6 1 6 -4 0 -5 10 -10 23 -10 12 -1 31 -4 42
-6 73 -18 221 -31 350 -29 165 2 234 10 350 37 33 8 69 17 79 19 99 23 280
106 379 174 90 63 199 166 266 252 104 136 195 348 226 529 25 150 25 150 7
150 -93 2 -895 0 -897 -2 -2 -2 -6 -28 -10 -58 -4 -30 -9 -58 -11 -61 -2 -3
-6 -20 -9 -38 -3 -19 -13 -50 -22 -70 -9 -20 -17 -38 -17 -41 -12 -45 -95
-138 -156 -173 -118 -67 -267 -70 -396 -6 -24 13 -44 26 -44 31 0 4 -4 8 -10
8 -26 0 -132 138 -157 207 -28 73 -30 78 -36 106 -1 6 -6 18 -10 25 -5 6 -6
12 -4 12 3 0 1 17 -4 38 -23 97 -32 368 -16 502 16 130 82 315 136 380 52 61
83 91 125 115 72 42 126 56 223 56 221 1 380 -160 417 -421 l3 -25 454 0 c397
0 454 2 454 15 1 8 -3 35 -7 60 -5 25 -11 59 -14 75 -9 52 -37 150 -45 159 -5
6 -9 16 -9 23 0 36 -111 236 -170 307 -55 66 -178 179 -242 223 -184 127 -423
213 -663 238 -57 6 -273 13 -278 9z"/>
<path d="M9135 9022 c-22 -1 -85 -9 -139 -18 -105 -17 -108 -17 -171 -34 -22
-6 -47 -12 -55 -14 -64 -16 -230 -93 -305 -141 -120 -77 -293 -242 -339 -324
-5 -9 -12 -18 -16 -21 -22 -16 -146 -260 -132 -260 4 0 2 -4 -3 -8 -17 -11
-71 -203 -90 -317 -30 -179 -20 -493 21 -660 1 -5 4 -21 7 -35 3 -14 10 -37
16 -52 6 -16 9 -28 7 -28 -7 0 51 -155 83 -221 30 -62 68 -133 83 -154 105
-142 160 -203 248 -274 25 -20 47 -39 48 -43 2 -5 8 -8 12 -8 5 0 29 -13 53
-30 25 -16 50 -30 56 -30 6 0 11 -3 11 -8 0 -4 15 -13 33 -21 17 -8 60 -27 94
-42 34 -16 73 -31 85 -34 13 -3 57 -14 98 -25 41 -11 91 -23 110 -26 19 -3 58
-9 85 -13 134 -22 398 -16 550 14 188 36 398 117 518 199 21 14 42 26 47 26 6
0 10 4 10 9 0 4 17 20 38 34 33 21 157 141 187 179 35 45 71 95 80 109 33 56
75 142 75 154 0 8 5 15 12 15 6 0 8 3 5 6 -3 4 -2 15 4 26 6 11 12 28 15 39 2
10 6 28 8 39 3 11 8 24 11 30 3 5 -4 12 -17 14 -13 3 -215 4 -450 4 l-426 -1
-7 -36 c-10 -54 -40 -105 -93 -158 -42 -42 -118 -90 -155 -97 -7 -2 -19 -6
-27 -9 -51 -21 -215 -28 -277 -13 -13 3 -32 8 -44 11 -44 9 -126 54 -167 91
-37 32 -104 117 -108 134 0 3 -11 28 -23 55 -12 28 -25 64 -28 80 -3 17 -10
36 -16 43 -5 6 -7 12 -4 12 2 0 -1 28 -7 63 -6 34 -12 84 -11 112 l0 50 950 0
950 1 -1 109 c-2 166 -7 226 -30 360 -3 22 -7 50 -7 63 -1 12 -5 22 -10 22 -5
0 -7 6 -4 14 3 8 3 17 -1 20 -3 4 -8 18 -9 32 -6 39 -84 247 -101 267 -8 9
-12 17 -8 17 12 0 -101 181 -149 239 -49 60 -146 152 -215 204 -95 72 -281
168 -350 181 -3 1 -18 7 -35 13 -40 16 -207 51 -281 59 -64 7 -235 11 -299 6z
m255 -591 c153 -43 266 -156 323 -321 22 -64 44 -173 39 -190 -1 -3 -227 -5
-503 -6 l-501 0 6 40 c8 61 12 75 36 146 61 181 180 298 343 335 65 15 197 12
257 -4z"/>
<path d="M6247 8994 c-26 -6 -51 -13 -55 -13 -4 -1 -25 -6 -47 -12 -22 -6 -45
-12 -50 -13 -23 -4 -205 -98 -205 -107 0 -5 -6 -9 -12 -9 -7 0 -26 -10 -41
-23 -44 -34 -156 -146 -174 -173 -8 -13 -19 -24 -24 -24 -4 0 -8 39 -8 88 1
235 2 229 -26 234 -14 3 -25 1 -25 -4 0 -5 -9 -4 -20 2 -14 8 -20 8 -20 0 0
-8 -6 -8 -20 0 -14 8 -20 8 -20 0 0 -8 -6 -8 -20 0 -11 6 -20 7 -20 2 0 -5
-18 -6 -40 -2 -22 4 -40 3 -40 -2 0 -5 -9 -4 -20 2 -11 6 -20 7 -20 2 0 -4
-27 -5 -60 -2 -33 3 -60 2 -60 -2 0 -5 -9 -4 -20 2 -11 6 -20 7 -20 2 0 -5
-18 -6 -40 -2 -22 4 -40 3 -40 -2 0 -5 -9 -4 -20 2 -14 8 -20 8 -20 0 0 -8 -6
-8 -20 0 -14 8 -20 8 -20 0 0 -8 -6 -8 -20 0 -11 6 -20 7 -20 3 0 -7 -95 -9
-125 -3 -5 1 -17 2 -26 1 -15 -1 -16 -118 -16 -1346 l0 -1345 438 0 439 0 0
43 c-1 462 9 1532 14 1562 16 89 49 192 79 249 32 61 115 156 135 156 7 0 12
4 12 8 0 21 143 58 215 57 164 -5 274 -75 334 -214 28 -67 35 -95 47 -191 3
-25 5 -411 6 -857 l0 -813 439 0 c411 0 439 1 439 18 4 155 0 1665 -4 1669 -3
3 -1 14 5 24 5 11 6 19 2 19 -4 0 -8 26 -9 58 -2 87 -32 275 -50 303 -3 5 -7
18 -9 30 -8 41 -58 153 -98 222 -38 64 -154 193 -218 242 -62 48 -229 123
-309 139 -39 8 -73 15 -100 22 -50 12 -324 11 -373 -2z"/>
<path d="M3336 8941 c-3 -5 -15 -7 -26 -4 -19 5 -20 0 -20 -98 -1 -159 -1
-2487 0 -2542 l0 -47 438 2 437 3 1 1338 c0 1093 -2 1340 -13 1349 -7 6 -13 7
-13 2 0 -5 -36 -7 -80 -4 -44 3 -80 1 -80 -3 0 -4 -9 -3 -20 3 -14 8 -20 8
-20 0 0 -8 -6 -8 -20 0 -14 8 -20 8 -20 0 0 -8 -6 -8 -20 0 -11 6 -20 7 -20 3
0 -4 -36 -6 -80 -3 -44 3 -80 1 -80 -3 0 -4 -9 -3 -20 3 -11 6 -20 7 -20 3 0
-4 -63 -6 -140 -3 -77 3 -140 1 -140 -3 0 -4 -9 -3 -19 3 -12 6 -22 6 -25 1z"/>
<path d="M0 5117 l0 -432 4888 0 4887 0 -1 -1985 c0 -1092 2 -1991 4 -1997 3
-10 99 -13 433 -13 l429 0 0 2430 0 2430 -5320 0 -5320 0 0 -433z"/>
<path d="M1478 4325 c-2 -2 -30 -6 -62 -9 -121 -12 -375 -74 -400 -97 -6 -5
-16 -9 -24 -9 -43 0 -314 -158 -401 -235 -43 -38 -170 -168 -194 -197 -82
-106 -190 -286 -223 -373 -59 -154 -109 -312 -119 -380 -2 -11 -6 -31 -9 -45
-3 -13 -8 -42 -11 -65 -3 -22 -8 -51 -10 -65 -14 -82 -20 -190 -19 -380 0
-211 4 -280 25 -410 6 -36 11 -74 13 -85 1 -11 8 -45 14 -75 7 -30 14 -64 16
-75 6 -29 60 -190 86 -255 36 -92 141 -287 175 -326 5 -7 19 -24 30 -40 117
-162 334 -340 525 -431 78 -36 213 -88 257 -98 121 -27 181 -39 253 -49 97
-15 385 -18 475 -6 33 5 85 12 115 16 82 10 92 12 127 23 18 5 33 8 33 5 0 -3
8 0 18 5 11 6 32 13 48 16 37 8 43 9 79 24 17 6 44 16 60 22 46 17 176 80 215
104 19 12 39 22 44 23 5 0 12 4 15 9 3 5 33 29 66 53 101 74 285 273 285 308
0 6 4 12 9 14 11 4 96 155 106 188 1 3 9 23 19 45 33 73 82 252 92 330 1 11 3
20 4 20 2 0 7 32 14 107 l6 58 -446 2 c-498 3 -458 9 -470 -69 -3 -21 -8 -47
-11 -58 -4 -11 -8 -25 -9 -30 -3 -18 -57 -150 -63 -155 -3 -3 -12 -17 -19 -31
-37 -71 -150 -177 -232 -216 -84 -41 -161 -62 -251 -68 -20 -1 -41 -5 -46 -8
-6 -4 -13 -4 -17 0 -3 4 -32 7 -64 9 -31 1 -57 2 -57 4 0 1 -9 3 -20 5 -61 8
-146 38 -175 59 -8 7 -28 18 -45 26 -48 24 -159 139 -207 215 -44 70 -98 184
-113 238 -2 4 -3 8 -5 10 -1 1 -3 9 -5 17 -1 8 -8 35 -15 60 -7 25 -14 54 -16
65 -2 11 -6 31 -9 45 -39 184 -36 563 6 750 6 25 13 56 16 70 7 34 9 42 16 60
15 39 31 96 29 103 -1 4 2 7 6 7 8 0 32 57 31 74 0 5 4 12 9 15 5 3 17 21 27
40 9 19 21 39 26 45 71 90 112 135 139 156 18 14 38 30 44 36 16 16 157 84
186 90 115 23 147 26 255 23 49 -1 181 -32 231 -54 30 -13 57 -24 61 -24 3 1
9 -3 12 -8 3 -4 24 -21 45 -37 118 -88 208 -242 232 -394 3 -20 7 -46 9 -57 2
-11 4 -23 4 -27 1 -5 203 -8 450 -8 l448 0 -3 38 c-11 126 -16 166 -30 222 -4
14 -8 34 -9 45 -4 32 -51 177 -74 228 -12 25 -21 48 -21 51 0 3 -20 40 -45 82
-25 41 -45 79 -45 84 0 5 -3 10 -7 12 -5 2 -21 21 -38 43 -148 202 -374 362
-641 455 -97 35 -192 58 -299 74 -11 2 -20 4 -20 5 0 10 -498 25 -507 16z"/>
<path d="M4504 4245 c-6 -5 -20 -37 -29 -70 -9 -33 -22 -66 -27 -72 -6 -7 -8
-13 -4 -13 3 0 1 -12 -5 -27 -14 -36 -268 -777 -285 -831 -2 -7 -3 -14 -4 -17
0 -3 -7 -19 -15 -35 -9 -17 -13 -30 -10 -30 3 0 -2 -17 -11 -37 -8 -21 -29
-78 -45 -128 -16 -49 -32 -97 -36 -105 -4 -8 -7 -19 -8 -25 0 -5 -3 -14 -7
-20 -3 -5 -13 -32 -21 -60 -8 -27 -33 -101 -55 -163 -23 -62 -42 -116 -43
-120 -3 -12 -6 -22 -39 -117 -18 -49 -33 -97 -35 -106 -2 -8 -10 -31 -17 -50
-13 -30 -18 -44 -18 -51 0 -2 -27 -81 -59 -175 -33 -95 -56 -173 -53 -173 4 0
3 -4 -3 -8 -8 -6 -63 -152 -79 -212 -3 -8 -32 -96 -66 -195 -34 -99 -63 -184
-65 -190 -1 -5 -5 -17 -8 -25 -12 -28 -89 -255 -97 -285 -13 -47 -49 -148 -60
-167 -28 -50 -43 -48 443 -48 l453 0 19 58 c10 31 20 63 21 70 2 12 18 64 94
312 21 69 52 168 68 220 l29 95 642 1 c573 0 643 -2 651 -16 4 -8 15 -40 23
-70 21 -74 67 -231 74 -250 3 -8 7 -20 9 -27 1 -7 9 -34 18 -60 8 -26 17 -60
20 -75 2 -14 9 -35 15 -46 5 -10 12 -31 15 -45 2 -14 15 -58 27 -96 l23 -71
453 0 c249 0 453 2 453 3 0 6 -141 421 -150 442 -4 11 -10 29 -13 40 -5 20
-53 163 -67 200 -15 37 -23 60 -25 70 -2 6 -24 71 -49 145 -26 74 -76 223
-112 330 -36 107 -69 204 -74 215 -19 44 -69 195 -64 195 3 0 -1 10 -8 23 -6
12 -13 28 -14 35 -1 8 -6 21 -10 30 -4 9 -8 22 -10 27 -1 6 -44 129 -94 275
-50 146 -93 270 -94 275 -2 6 -6 18 -10 27 -4 9 -9 22 -10 30 -2 7 -6 20 -9
28 -14 38 -48 137 -52 150 -2 8 -17 56 -35 105 -17 50 -53 155 -80 235 -27 80
-81 237 -120 350 -39 113 -72 210 -73 215 -11 40 -40 115 -45 116 -4 0 -256 1
-561 2 -357 1 -558 -2 -567 -8z m575 -572 c0 -10 9 -54 21 -98 12 -44 23 -87
25 -95 2 -8 4 -15 5 -15 2 0 7 -22 15 -60 7 -33 13 -60 15 -60 2 0 5 -12 13
-50 2 -11 6 -27 9 -35 8 -20 32 -107 58 -205 30 -112 51 -186 61 -215 5 -14
11 -34 14 -45 9 -44 59 -212 134 -454 28 -90 51 -168 51 -175 0 -8 -113 -11
-422 -10 -233 1 -426 2 -429 3 -5 1 49 200 68 251 4 8 7 20 7 25 2 14 24 90
46 160 10 33 21 72 24 85 12 52 64 239 70 248 3 5 8 22 10 38 3 16 14 59 25
96 11 36 17 69 13 72 -3 3 -1 6 5 6 5 0 10 6 10 13 0 6 8 41 18 77 9 36 19 72
21 80 2 8 11 44 19 80 9 36 18 70 19 75 1 6 5 16 9 23 5 6 6 16 2 21 -3 5 -1
12 4 16 5 3 10 13 10 23 0 16 8 57 11 57 1 0 3 9 5 19 9 47 16 66 25 66 5 0 9
-8 9 -17z"/>
<path d="M7148 4249 c-7 -5 -10 -587 -10 -1770 0 -970 1 -1770 1 -1776 1 -10
219 -13 1056 -13 l1055 0 0 368 0 367 -622 0 -623 0 -1 1407 c0 774 -3 1410
-5 1413 -8 7 -839 11 -851 4z"/>
</g>
</svg>
